<svg xmlns="http://www.w3.org/2000/svg" width="584" height="148" viewBox="0 0 584 148">
  <defs>
    <style>
      .banner {
        fill-rule: evenodd;
        fill: #00c447;
      }
    </style>
  </defs>
  <path id="fatwa_archive_banner" data-name="fatwa archive banner" class="banner" d="M544.488,37.032s7.371-.617,7.371,6.552v51.6s-0.441,4.848-4.914,4.848h-64.7a5.675,5.675,0,0,1-4.914-3.21c-3.942,3.21-4.412,3.21-8.19,3.21H449.484s-1.757.281-4.914-2.391c-1.052,6.671-4.337,24.891-25.389,29.484-16.061,3.5-25.823,1.426-26.208-7.371-0.285-6.483,3.074-8.76,8.19-9.009s22.365,2.974,24.57-13.1c-6.559,3.89-28.011,6.888-36.036-16.38s3.325-40.351,16.38-44.226c15.5-4.6,30.4,3.644,35.217,18.837,3.5,11.053,3.276,27.517,3.276,27.517h17.2V64.059s-0.635-7.371,8.19-7.371,8.19,7.371,8.19,7.371V83.518h22.932s-11.548-20.8,3.276-38.3c6.4-6.181,11.81-8.322,17.2-8.19C525.5,37.129,544.488,37.032,544.488,37.032Zm-9.009,16.38V83.518h-13.1s-8.9-3.68-9.009-16.183c-0.1-12.111,7.758-13.923,10.647-13.923h11.466ZM348.747,50.955h14.742s5.993,1.1,5.733,9.009-6.552,8.19-6.552,8.19h-13.1s-11.79.7-10.647,15.364h22.113s25.389,1.666,25.389,29.681c0,6.238.554,14.742-8.19,14.742H333.753s-5.733.072-5.733-8.19,5.733-8.19,5.733-8.19h36.288s-0.082-11.532-13.1-11.532H330.729s-8.19-1.435-8.19-8.124S317.045,55.509,348.747,50.955ZM302.4,33.168V96.231s0.105,4.189-6.552,4.189-7.371-4.189-7.371-4.189V33.168s-0.418-5.733,6.552-5.733C302.688,27.435,302.4,33.168,302.4,33.168ZM280.287,53.643V100.42s-1.853,22.906-26.208,23.657c-14.006.062-15.694-2.409-15.561-8.19,0.133-5.849,5.1-6.552,7.371-6.552,7.91,0,19.656,1.912,19.656-12.285V53.643s0.065-5.733,7.371-5.733S280.287,53.643,280.287,53.643ZM240.156,35.625L207.4,61.014h27.846c1.064,0,21.294.989,21.294,23.751v8.19s-0.74,7.371-6.552,7.371H177.093s-2.453-.015-4.914-3.276c-2.043,2.4-1.939,3.276-6.552,3.276H36.225s-4.095.553-4.095-6.552,4.914-7.1,4.914-7.1h90.09V62.652s0.092-4.914,6.552-4.914,6.552,5.733,6.552,5.733v23.2h19.656V61.833s0.115-4.914,6.552-4.914c7.171,0,7.371,4.914,7.371,4.914V86.669l69.615-.011s1.515-12.54-14.742-12.54H191.835s-6.585-.945-6.552-7.371c0.021-4.151,2.457-5.733,2.457-5.733l41.769-34.4s5.6-3.94,9.828.819A6.775,6.775,0,0,1,240.156,35.625ZM525.651,11.643s9.009,0.2,9.009,9.828-9.009,9.009-9.009,9.009-9.009.036-9.009-9.009C516.642,13.149,522.036,11.643,525.651,11.643Zm-55.692.819s9.009-.74,9.009,9.009c0,8.3-9.828,9.009-9.828,9.009s-9.009-1.314-9.009-8.19C460.131,14.57,465.38,12.462,469.959,12.462Zm0,22.113s9.009-.433,9.009,9.009c0,8.6-9.009,9.009-9.009,9.009s-9.828.7-9.828-9.009C460.131,36.281,466.706,34.575,469.959,34.575ZM314.974,111.086s9.142,0.691,9.009,9.009c-0.093,5.787-5.569,9.828-9.009,9.828s-9.828-3.143-9.828-9.828S311.43,111.086,314.974,111.086Zm-22.932,0s8.734,0.856,9.009,9.828c0.177,5.787-6,9.009-9.009,9.009s-9.009-2.569-9.009-9.009S287.966,111.086,292.042,111.086ZM100.107,107.7s8.188-.2,8.19,8.19c0,6.8-8.19,7.371-8.19,7.371s-7.153-.68-7.371-8.19C92.558,108.973,98.689,107.7,100.107,107.7Zm66.339-4.914c2.62,0.066,7.378,1.76,7.371,8.19s-7.371,7.371-7.371,7.371-8.307-.631-8.19-8.19C158.351,103.976,164,102.722,166.446,102.783Zm0,18.837c3.144,0,7.378,3.8,7.371,8.19s-3.836,6.8-8.19,6.552a7.579,7.579,0,0,1-7.453-7.538C157.864,123.983,163.3,121.62,166.446,121.62Zm248.64-70.665s12.578,0.316,10.647,21.294-26.27,15.829-21.294-11.466C405.827,53.165,412.456,50.809,415.086,50.955Z"/>
</svg>
